<svg width="300pt" height="300pt" version="1.0" viewBox="0 0 300.000000 300.000000" xmlns="http://www.w3.org/2000/svg">
<g transform="translate(0 300) scale(.1 -.1)">
<path d="m580 2503c-113-19-187-73-221-161-20-52-23-81-29-337-7-280-12-316-48-373-28-43-89-65-190-70l-92-4v-58-58l92-4c101-5 162-27 190-70 36-57 41-93 48-373 6-256 9-285 29-337 27-70 81-121 153-143 32-11 104-19 186-22l132-6v57 56h-77c-87 0-148 14-177 38-45 40-50 73-57 372-4 182-11 299-19 325-17 55-83 118-147 141-29 10-53 21-53 24s23 13 51 23c62 22 129 86 148 142 10 28 16 125 20 325 7 299 12 332 57 372 29 24 90 38 177 38h77v55 55l-112-1c-62-1-124-4-138-6z"/>
<path d="m2170 2456v-56h78c86 0 147-14 176-38 45-40 50-73 56-372 8-323 14-354 80-414 21-19 61-43 89-53s51-20 51-23-23-13-51-23c-62-22-129-86-148-142-10-28-16-125-20-325-7-299-12-332-57-372-29-24-90-38-176-38h-78v-56-57l138 5c207 8 287 47 334 167 19 51 22 82 28 336 7 280 12 316 48 373 28 43 89 65 190 70l92 4v58 58l-92 4c-101 5-162 27-190 70-36 57-41 93-48 373-6 256-9 285-29 337-27 70-81 121-153 143-32 11-104 19-185 22l-133 6v-57z"/>
<path d="m1246 1920l-82-80h-126c-121 0-128-1-157-26l-31-26v-368-368l31-26 31-26h588 588l31 26 31 26v368 368l-31 26c-29 25-36 26-152 26h-121l-82 80-82 80h-177-177l-82-80zm819-200c0-33-2-35-35-35-29 0-36 4-38 23-6 40 5 54 40 50 30-3 33-6 33-38zm-474 3c75-24 159-107 184-182 47-143-24-302-163-363-59-27-165-27-224 0-101 44-167 137-176 248-7 92 18 155 87 224 86 85 180 109 292 73z"/>
<path d="m1429 1654c-82-25-149-118-149-208 0-80 54-165 124-197 146-66 316 40 316 197 0 93-74 190-163 212-57 15-70 14-128-4z"/>
</g>
</svg>