<?xml version="1.0" standalone="no"?>
<!DOCTYPE svg PUBLIC "-//W3C//DTD SVG 20010904//EN"
 "http://www.w3.org/TR/2001/REC-SVG-20010904/DTD/svg10.dtd">
<svg version="1.0" xmlns="http://www.w3.org/2000/svg"
 width="700.000000pt" height="700.000000pt" viewBox="0 0 700.000000 700.000000"
 preserveAspectRatio="xMidYMid meet">
<metadata>
Created by potrace 1.11, written by Peter Selinger 2001-2013
</metadata>
<g transform="translate(0.000000,700.000000) scale(0.100000,-0.100000)"
fill="#000000" stroke="none">
<path d="M5074 5862 c-6 -4 -10 -58 -10 -134 l0 -128 131 -1 c204 -2 274 -9
353 -36 68 -22 93 -37 128 -75 53 -56 68 -100 88 -253 7 -49 14 -244 21 -520
15 -644 29 -795 84 -908 50 -102 180 -204 339 -264 106 -39 106 -41 3 -84
-151 -63 -256 -145 -330 -255 -70 -106 -72 -132 -96 -979 -10 -345 -17 -459
-35 -557 -30 -156 -120 -230 -309 -254 -90 -11 -99 -12 -242 -13 l-136 -1 0
-130 c0 -133 0 -134 37 -132 3 0 84 3 180 7 175 6 271 12 319 19 142 23 185
32 245 53 159 57 253 151 316 315 43 112 53 207 65 603 16 556 20 658 31 770
33 330 153 429 544 450 41 3 103 6 137 7 l63 3 0 136 0 136 -42 0 c-370 6
-544 57 -623 184 -29 46 -63 144 -70 201 -3 24 -7 59 -10 78 -7 48 -14 211
-20 415 -20 757 -25 822 -70 941 -59 156 -169 268 -325 329 -34 13 -81 27
-103 31 -23 3 -44 7 -47 9 -3 1 -45 6 -95 10 -49 4 -108 9 -130 11 -22 1 -114
6 -205 9 -90 4 -167 8 -170 10 -3 2 -11 1 -16 -3z"/>
<path d="M1657 5853 c-1 -1 -61 -3 -132 -4 -72 -1 -164 -9 -205 -17 -215 -40
-379 -154 -460 -318 -61 -125 -73 -218 -85 -649 -22 -819 -28 -881 -93 -1013
-73 -150 -234 -205 -614 -213 l-68 -2 0 -137 0 -137 33 0 c117 -2 285 -15 357
-29 235 -43 324 -150 354 -429 11 -101 16 -220 31 -760 6 -220 14 -387 21
-440 41 -305 233 -495 535 -529 30 -4 70 -9 89 -11 39 -6 128 -11 340 -20 79
-4 147 -7 150 -7 23 -2 26 12 26 132 l1 130 -126 1 c-347 2 -474 46 -536 184
-20 45 -27 77 -40 200 -7 62 -15 233 -20 430 -17 626 -26 791 -46 885 -29 134
-193 289 -373 354 -111 40 -111 47 -12 86 139 53 254 140 328 248 78 113 81
142 103 1002 6 217 8 268 21 430 10 134 35 214 82 263 27 28 87 70 107 73 5 1
37 9 70 18 77 20 128 24 301 25 l141 1 -1 128 -1 127 -138 0 c-76 0 -139 -1
-140 -2z"/>
<path d="M2998 4569 c-57 -55 -142 -139 -191 -187 l-87 -87 -246 -1 c-347 -2
-360 -5 -457 -94 l-34 -30 1 -859 1 -859 25 -21 c14 -11 48 -38 75 -60 l50
-38 1368 1 1369 1 72 60 73 60 0 857 0 858 -50 43 c-92 79 -85 77 -411 80
l-251 1 -189 187 -190 187 -413 0 -413 1 -102 -100z m1801 -488 c16 -16 19
-31 17 -76 -3 -65 -13 -75 -71 -75 -84 0 -96 12 -98 97 0 57 18 73 85 73 34 0
54 -6 67 -19z m-1139 -46 c117 -30 219 -92 316 -191 135 -137 196 -277 196
-448 1 -92 -1 -102 -22 -191 -55 -223 -257 -429 -475 -485 -71 -18 -258 -20
-330 -3 -245 56 -446 260 -500 508 -30 140 -21 293 24 397 65 151 252 334 401
392 116 46 263 54 390 21z"/>
<path d="M3395 3876 c-108 -29 -166 -60 -236 -126 -179 -168 -219 -415 -101
-628 39 -70 148 -175 212 -204 201 -92 441 -48 595 108 101 102 145 211 145
354 -1 248 -217 483 -465 507 -27 2 -54 6 -60 7 -5 2 -46 -6 -90 -18z"/>
</g>
</svg>
